<svg width="118" height="100" viewBox="0 0 118 100" fill="none" xmlns="http://www.w3.org/2000/svg">
<path d="M4.75 35.03C4.75 33.77 4.99 32.61 5.47 31.55C5.95 30.47 6.6 29.54 7.42 28.76C8.26 27.96 9.24 27.34 10.36 26.9C11.48 26.44 12.68 26.19 13.96 26.15H18.79L17.77 27.65C17.63 27.85 17.5 28.04 17.38 28.22C17.28 28.38 17.18 28.54 17.08 28.7C16.98 28.88 16.87 29.04 16.75 29.18H14.23C13.37 29.18 12.57 29.33 11.83 29.63C11.11 29.91 10.48 30.31 9.94 30.83C9.4 31.33 8.97 31.94 8.65 32.66C8.35 33.38 8.2 34.17 8.2 35.03C8.2 35.95 8.37 36.78 8.71 37.52C9.05 38.26 9.5 38.89 10.06 39.41C10.64 39.91 11.31 40.3 12.07 40.58C12.83 40.84 13.63 40.97 14.47 40.97H18.79C18.75 41.03 18.63 41.2 18.43 41.48C18.25 41.76 18.04 42.07 17.8 42.41C17.58 42.73 17.36 43.05 17.14 43.37C16.94 43.67 16.8 43.88 16.72 44H14.2C14.06 44 13.92 44 13.78 44C13.66 43.98 13.53 43.97 13.39 43.97C12.15 43.87 11 43.58 9.94 43.1C8.9 42.6 7.99 41.95 7.21 41.15C6.45 40.35 5.85 39.43 5.41 38.39C4.97 37.35 4.75 36.23 4.75 35.03ZM21.1773 44V26.18H24.2973V44H21.1773ZM27.5934 44V35.57H34.3734C35.3534 35.57 36.1734 35.29 36.8334 34.73C37.4934 34.17 37.8234 33.44 37.8234 32.54C37.8234 32.06 37.7234 31.62 37.5234 31.22C37.3434 30.8 37.0934 30.45 36.7734 30.17C36.4534 29.89 36.0834 29.67 35.6634 29.51C35.2434 29.35 34.8134 29.27 34.3734 29.27H27.5934L28.4934 27.92C28.7334 27.56 28.9634 27.22 29.1834 26.9C29.4234 26.56 29.5934 26.31 29.6934 26.15H34.3734C35.2734 26.15 36.1134 26.32 36.8934 26.66C37.6934 26.98 38.3934 27.43 38.9934 28.01C39.5934 28.59 40.0634 29.27 40.4034 30.05C40.7634 30.83 40.9434 31.66 40.9434 32.54C40.9434 33.42 40.7634 34.24 40.4034 35C40.0634 35.74 39.5934 36.38 38.9934 36.92C38.4134 37.46 37.7234 37.89 36.9234 38.21C36.1234 38.51 35.2734 38.66 34.3734 38.66H30.7134V44H27.5934ZM43.3551 26.15H46.4751V33.62H54.0351V26.15H57.1551V53.12C56.6551 52.3 56.1351 51.46 55.5951 50.6C55.0751 49.76 54.5551 48.92 54.0351 48.08V36.71H46.4751V44H43.3551V26.15ZM79.4245 26.18C80.3245 26.18 81.1645 26.35 81.9445 26.69C82.7445 27.01 83.4445 27.46 84.0445 28.04C84.6445 28.62 85.1145 29.3 85.4545 30.08C85.8145 30.86 85.9945 31.69 85.9945 32.57C85.9945 33.29 85.8745 33.96 85.6345 34.58C85.4145 35.2 85.0945 35.77 84.6745 36.29C84.2745 36.79 83.7845 37.23 83.2045 37.61C82.6445 37.97 82.0345 38.24 81.3745 38.42C81.5345 38.76 81.7345 39.2 81.9745 39.74C82.2145 40.26 82.4845 40.85 82.7845 41.51C83.0845 42.15 83.4045 42.84 83.7445 43.58C84.0845 44.3 84.4245 45.03 84.7645 45.77V53.18C84.4045 52.38 83.9645 51.42 83.4445 50.3C82.9445 49.2 82.4045 48.04 81.8245 46.82C81.2645 45.6 80.6945 44.38 80.1145 43.16C79.5545 41.92 79.0345 40.78 78.5545 39.74C78.0945 38.7 77.6845 37.81 77.3245 37.07C76.9845 36.33 76.7645 35.83 76.6645 35.57H79.4245C79.8645 35.57 80.2945 35.51 80.7145 35.39C81.1345 35.25 81.5045 35.06 81.8245 34.82C82.1445 34.56 82.3945 34.24 82.5745 33.86C82.7745 33.48 82.8745 33.05 82.8745 32.57C82.8745 32.07 82.7745 31.62 82.5745 31.22C82.3945 30.82 82.1445 30.48 81.8245 30.2C81.5045 29.9 81.1345 29.67 80.7145 29.51C80.2945 29.35 79.8645 29.27 79.4245 29.27H73.7545C73.5545 28.85 73.3345 28.39 73.0945 27.89C72.8545 27.37 72.5945 26.8 72.3145 26.18H79.4245ZM60.4645 44V35.63H73.5745C73.8145 36.15 74.0545 36.67 74.2945 37.19C74.5345 37.71 74.7745 38.22 75.0145 38.72H63.5845V40.88H76.0045C76.3245 41.56 76.6045 42.17 76.8445 42.71C77.0845 43.25 77.2845 43.68 77.4445 44H60.4645ZM69.1945 26.18C69.2345 26.26 69.3845 26.58 69.6445 27.14C69.9045 27.68 70.2345 28.39 70.6345 29.27H60.4645V26.18H69.1945Z" fill="#D8DBE2"/>
<path d="M41.1695 73.3701C41.5295 72.8301 41.8595 72.3401 42.1595 71.9001C42.4195 71.5201 42.6495 71.1801 42.8495 70.8801C43.0695 70.5601 43.1895 70.3801 43.2095 70.3401H48.6995C49.5395 70.3401 50.2995 70.1901 50.9795 69.8901C51.6795 69.5701 52.2795 69.1501 52.7795 68.6301C53.2795 68.0901 53.6695 67.4701 53.9495 66.7701C54.2295 66.0501 54.3695 65.2801 54.3695 64.4601C54.3695 63.6601 54.2295 62.9101 53.9495 62.2101C53.6695 61.4901 53.2795 60.8601 52.7795 60.3201C52.2995 59.7801 51.7095 59.3601 51.0095 59.0601C50.3095 58.7401 49.5395 58.5801 48.6995 58.5801H41.1695L43.2095 55.5501H48.6995C49.9195 55.5501 51.0795 55.7801 52.1795 56.2401C53.2995 56.7001 54.2695 57.3301 55.0895 58.1301C55.9295 58.9301 56.5895 59.8701 57.0695 60.9501C57.5695 62.0301 57.8195 63.2001 57.8195 64.4601C57.8195 65.7201 57.5695 66.8901 57.0695 67.9701C56.5895 69.0501 55.9295 69.9901 55.0895 70.7901C54.2695 71.5901 53.2995 72.2201 52.1795 72.6801C51.0795 73.1401 49.9195 73.3701 48.6995 73.3701H41.1695ZM63.9995 55.5501C64.8995 55.5501 65.7395 55.7201 66.5195 56.0601C67.3195 56.3801 68.0195 56.8301 68.6195 57.4101C69.2195 57.9901 69.6895 58.6701 70.0295 59.4501C70.3895 60.2301 70.5695 61.0601 70.5695 61.9401C70.5695 62.6601 70.4495 63.3401 70.2095 63.9801C69.9895 64.6001 69.6695 65.1601 69.2495 65.6601C68.8495 66.1601 68.3595 66.6001 67.7795 66.9801C67.2195 67.3401 66.6095 67.6101 65.9495 67.7901C66.1095 68.1301 66.2995 68.5601 66.5195 69.0801C66.7595 69.5801 67.0195 70.1501 67.2995 70.7901C67.5995 71.4101 67.8995 72.0801 68.1995 72.8001C68.5195 73.5001 68.8495 74.2101 69.1895 74.9301V82.5801C68.8095 81.7801 68.3695 80.8201 67.8695 79.7001C67.3695 78.5801 66.8395 77.4101 66.2795 76.1901C65.7395 74.9701 65.1895 73.7501 64.6295 72.5301C64.0695 71.2901 63.5595 70.1501 63.0995 69.1101C62.6395 68.0701 62.2395 67.1801 61.8995 66.4401C61.5595 65.7001 61.3395 65.2001 61.2395 64.9401H63.9995C64.4395 64.9401 64.8695 64.8801 65.2895 64.7601C65.7095 64.6201 66.0795 64.4301 66.3995 64.1901C66.7195 63.9301 66.9695 63.6101 67.1495 63.2301C67.3495 62.8501 67.4495 62.4201 67.4495 61.9401C67.4495 61.4601 67.3495 61.0201 67.1495 60.6201C66.9695 60.2001 66.7195 59.8501 66.3995 59.5701C66.0795 59.2901 65.7095 59.0701 65.2895 58.9101C64.8695 58.7501 64.4395 58.6701 63.9995 58.6701H58.3295C58.1295 58.2301 57.9095 57.7601 57.6695 57.2601C57.4495 56.7401 57.1995 56.1701 56.9195 55.5501H63.9995ZM70.3762 73.3701C70.5162 73.0701 70.7962 72.4601 71.2162 71.5401C71.6362 70.6201 72.1262 69.5501 72.6862 68.3301C73.2462 67.1101 73.8462 65.8101 74.4862 64.4301C75.1262 63.0501 75.7262 61.7501 76.2862 60.5301C76.8462 59.3101 77.3362 58.2501 77.7562 57.3501C78.1762 56.4301 78.4562 55.8201 78.5962 55.5201H82.0162C82.0362 55.5801 82.1862 55.9301 82.4662 56.5701C82.7662 57.1901 83.1462 58.0101 83.6062 59.0301C84.0662 60.0301 84.5962 61.1801 85.1962 62.4801C85.7962 63.7801 86.4162 65.1501 87.0562 66.5901C87.7162 68.0101 88.3762 69.4501 89.0362 70.9101C89.7162 72.3701 90.3562 73.7501 90.9562 75.0501V82.5501C89.9962 80.4701 89.1962 78.7301 88.5562 77.3301C87.9162 75.9301 87.3562 74.7001 86.8762 73.6401C86.3962 72.5801 85.9562 71.6101 85.5562 70.7301C85.1562 69.8501 84.7162 68.9001 84.2362 67.8801C83.7762 66.8401 83.2362 65.6401 82.6162 64.2801C81.9962 62.9201 81.2262 61.2401 80.3062 59.2401C79.6062 60.7801 79.0562 61.9901 78.6562 62.8701C78.2562 63.7301 77.9462 64.3801 77.7262 64.8201C77.5262 65.2601 77.3862 65.5601 77.3062 65.7201C77.2462 65.8601 77.1962 65.9801 77.1562 66.0801C77.1162 66.1801 77.0562 66.3201 76.9762 66.5001C76.8962 66.6601 76.7362 66.9901 76.4962 67.4901C76.2762 67.9701 75.9562 68.6701 75.5362 69.5901C75.1162 70.5101 74.5362 71.7701 73.7962 73.3701H70.3762ZM84.7642 45.7701C85.5042 47.3701 86.1442 48.7701 86.6842 49.9701C87.2442 51.1701 87.7342 52.2401 88.1542 53.1801C88.5942 54.1201 88.9842 54.9701 89.3242 55.7301C89.6842 56.4701 90.0242 57.2001 90.3442 57.9201C90.6842 58.6201 91.0242 59.3401 91.3642 60.0801C91.7042 60.8001 92.0842 61.6201 92.5042 62.5401C92.9242 63.4401 93.4042 64.4601 93.9442 65.6001C94.4842 66.7401 95.1042 68.0801 95.8042 69.6201C96.2242 68.6601 96.5942 67.8501 96.9142 67.1901C97.2342 66.5101 97.5042 65.9301 97.7242 65.4501C97.6842 65.3501 97.6442 65.2701 97.6042 65.2101C97.5642 65.1301 97.5242 65.0401 97.4842 64.9401C97.0042 63.9001 96.5242 62.8701 96.0442 61.8501C95.5842 60.8101 95.1542 59.8601 94.7542 59.0001C94.3542 58.1401 94.0142 57.4001 93.7342 56.7801C93.4542 56.1601 93.2542 55.7301 93.1342 55.4901H96.5542C97.3342 57.2101 98.0342 58.7401 98.6542 60.0801C99.2742 61.4201 99.8342 62.6401 100.334 63.7401C100.854 64.8401 101.334 65.8601 101.774 66.8001C102.214 67.7201 102.644 68.6301 103.064 69.5301C103.704 68.1301 104.194 67.0501 104.534 66.2901C104.894 65.5301 105.174 64.9501 105.374 64.5501C105.574 64.1301 105.724 63.8101 105.824 63.5901C105.944 63.3501 106.084 63.0601 106.244 62.7201C106.404 62.3801 106.624 61.9101 106.904 61.3101C107.184 60.6901 107.594 59.7901 108.134 58.6101H102.254C102.134 58.3301 102.054 58.1501 102.014 58.0701C101.974 57.9901 101.924 57.8901 101.864 57.7701C101.804 57.6301 101.704 57.4001 101.564 57.0801C101.424 56.7601 101.184 56.2301 100.844 55.4901H112.994C112.994 55.4901 112.884 55.7301 112.664 56.2101C112.444 56.6901 112.154 57.3201 111.794 58.1001C111.434 58.8801 111.014 59.7801 110.534 60.8001C110.074 61.8201 109.594 62.8701 109.094 63.9501C108.614 65.0101 108.134 66.0701 107.654 67.1301C107.174 68.1701 106.734 69.1201 106.334 69.9801C105.934 70.8401 105.594 71.5701 105.314 72.1701C105.054 72.7501 104.884 73.1201 104.804 73.2801C104.904 73.5001 105.014 73.7301 105.134 73.9701C105.254 74.2101 105.364 74.4501 105.464 74.6901V82.5501C105.424 82.4701 105.264 82.1201 104.984 81.5001C104.724 80.9001 104.394 80.1601 103.994 79.2801C103.594 78.4201 103.164 77.4701 102.704 76.4301C102.244 75.3901 101.794 74.3901 101.354 73.4301C100.914 72.4701 100.524 71.6101 100.184 70.8501C99.8442 70.0701 99.5942 69.5101 99.4342 69.1701C98.9142 70.3101 98.4742 71.2701 98.1142 72.0501C97.7542 72.8101 97.5542 73.2401 97.5142 73.3401H94.0642C93.9642 73.1401 93.7542 72.6901 93.4342 71.9901C93.1142 71.2701 92.7042 70.3801 92.2042 69.3201C91.7242 68.2601 91.1742 67.0701 90.5542 65.7501C89.9542 64.4101 89.3242 63.0301 88.6642 61.6101C88.0042 60.1901 87.3342 58.7601 86.6542 57.3201C85.9942 55.8801 85.3642 54.5101 84.7642 53.2101V45.7701Z" fill="#7F7CAF"/>
</svg>
