<svg width="96" height="54" viewBox="0 0 96 54" fill="none" xmlns="http://www.w3.org/2000/svg">
<path d="M28.04 47V29.84H33.584C35.344 29.84 36.888 30.208 38.216 30.944C39.56 31.68 40.608 32.696 41.36 33.992C42.112 35.272 42.488 36.744 42.488 38.408C42.488 40.072 42.112 41.552 41.36 42.848C40.608 44.144 39.56 45.16 38.216 45.896C36.888 46.632 35.344 47 33.584 47H28.04ZM29.888 45.32H33.584C35.008 45.32 36.24 45.032 37.28 44.456C38.336 43.88 39.144 43.072 39.704 42.032C40.28 40.992 40.568 39.784 40.568 38.408C40.568 37.032 40.28 35.832 39.704 34.808C39.144 33.768 38.336 32.96 37.28 32.384C36.24 31.808 35.008 31.52 33.584 31.52H29.888V45.32ZM51.8051 35V36.728H51.3251C50.6211 36.728 49.9571 36.912 49.3331 37.28C48.7091 37.648 48.2051 38.224 47.8211 39.008C47.4371 39.792 47.2451 40.808 47.2451 42.056V47H45.4691V35.192H47.2211V38.936H46.9091C47.1011 37.976 47.4371 37.208 47.9171 36.632C48.3971 36.056 48.9491 35.64 49.5731 35.384C50.2131 35.128 50.8691 35 51.5411 35H51.8051ZM64.2193 47H62.5153V44.696L62.4913 44.024V39.608C62.4913 38.616 62.1713 37.824 61.5313 37.232C60.8913 36.64 60.0273 36.344 58.9393 36.344C58.1553 36.344 57.4433 36.512 56.8033 36.848C56.1793 37.184 55.6273 37.64 55.1473 38.216L53.8993 37.016C54.5553 36.312 55.2913 35.768 56.1073 35.384C56.9393 35 57.8833 34.808 58.9393 34.808C59.9953 34.808 60.9153 35.008 61.6993 35.408C62.4993 35.792 63.1153 36.336 63.5473 37.04C63.9953 37.744 64.2193 38.576 64.2193 39.536V47ZM58.0033 47.384C57.1073 47.384 56.3153 47.224 55.6273 46.904C54.9553 46.568 54.4273 46.12 54.0433 45.56C53.6753 45 53.4913 44.36 53.4913 43.64C53.4913 42.808 53.7233 42.104 54.1873 41.528C54.6513 40.936 55.2833 40.488 56.0833 40.184C56.8993 39.88 57.8193 39.728 58.8433 39.728H62.7313V41.168H59.0833C58.0113 41.168 57.1153 41.368 56.3953 41.768C55.6913 42.152 55.3393 42.76 55.3393 43.592C55.3393 44.296 55.6033 44.856 56.1313 45.272C56.6593 45.688 57.3553 45.896 58.2193 45.896C59.0513 45.896 59.8033 45.736 60.4753 45.416C61.1473 45.08 61.6833 44.616 62.0833 44.024C62.4993 43.432 62.7313 42.752 62.7793 41.984L63.4993 42.392C63.4993 43.352 63.2593 44.208 62.7793 44.96C62.3153 45.712 61.6673 46.304 60.8353 46.736C60.0033 47.168 59.0593 47.384 58.0033 47.384ZM79.9826 47H77.9186L74.7986 36.68H75.1826L72.0626 47H69.9986L66.2066 35.192H68.0546L71.4146 46.328H70.7186L74.1026 35.192H75.9746L79.3346 46.328H78.6386L81.9986 35.192H83.7746L79.9826 47Z" fill="white"/>
<path d="M24.408 18.848L25.752 20.12C25.016 21.128 24.048 21.928 22.848 22.52C21.664 23.096 20.36 23.384 18.936 23.384C17.704 23.384 16.56 23.16 15.504 22.712C14.464 22.264 13.552 21.64 12.768 20.84C12 20.024 11.4 19.072 10.968 17.984C10.536 16.896 10.32 15.712 10.32 14.432C10.32 13.152 10.536 11.968 10.968 10.88C11.416 9.776 12.032 8.824 12.816 8.024C13.6 7.208 14.512 6.576 15.552 6.128C16.608 5.68 17.752 5.456 18.984 5.456C20.408 5.456 21.704 5.752 22.872 6.344C24.056 6.92 25.016 7.712 25.752 8.72L24.408 9.992C23.816 9.112 23.064 8.416 22.152 7.904C21.24 7.392 20.184 7.136 18.984 7.136C17.704 7.136 16.552 7.456 15.528 8.096C14.52 8.72 13.72 9.584 13.128 10.688C12.536 11.776 12.24 13.024 12.24 14.432C12.24 15.824 12.536 17.072 13.128 18.176C13.72 19.264 14.52 20.128 15.528 20.768C16.552 21.392 17.704 21.704 18.984 21.704C20.184 21.704 21.24 21.448 22.152 20.936C23.064 20.424 23.816 19.728 24.408 18.848ZM30.1982 23H28.4222V11.192H30.1982V23ZM29.3102 8.024C28.9582 8.024 28.6542 7.904 28.3982 7.664C28.1422 7.408 28.0142 7.104 28.0142 6.752C28.0142 6.384 28.1422 6.08 28.3982 5.84C28.6542 5.584 28.9582 5.456 29.3102 5.456C29.6782 5.456 29.9822 5.584 30.2222 5.84C30.4782 6.08 30.6062 6.384 30.6062 6.752C30.6062 7.104 30.4782 7.408 30.2222 7.664C29.9822 7.904 29.6782 8.024 29.3102 8.024ZM35.331 27.656H33.555V11.192H35.307V14.768H34.875C35.019 13.984 35.331 13.296 35.811 12.704C36.307 12.112 36.915 11.648 37.635 11.312C38.371 10.976 39.163 10.808 40.011 10.808C41.163 10.808 42.187 11.088 43.083 11.648C43.979 12.192 44.675 12.936 45.171 13.88C45.683 14.824 45.939 15.896 45.939 17.096C45.939 18.312 45.675 19.392 45.147 20.336C44.635 21.28 43.915 22.024 42.987 22.568C42.075 23.112 41.027 23.384 39.843 23.384C38.771 23.384 37.827 23.168 37.011 22.736C36.211 22.288 35.603 21.688 35.187 20.936C34.787 20.168 34.643 19.312 34.755 18.368L35.091 17.888C35.155 18.64 35.395 19.32 35.811 19.928C36.227 20.52 36.771 20.984 37.443 21.32C38.115 21.656 38.851 21.824 39.651 21.824C40.531 21.824 41.299 21.624 41.955 21.224C42.611 20.808 43.123 20.248 43.491 19.544C43.875 18.824 44.067 18.008 44.067 17.096C44.067 16.184 43.883 15.376 43.515 14.672C43.163 13.952 42.667 13.392 42.027 12.992C41.387 12.576 40.643 12.368 39.795 12.368C38.931 12.368 38.163 12.584 37.491 13.016C36.819 13.448 36.291 14.048 35.907 14.816C35.523 15.568 35.331 16.448 35.331 17.456V27.656ZM59.5665 23H57.7905V16.184C57.7905 14.92 57.5025 13.968 56.9265 13.328C56.3505 12.688 55.5745 12.368 54.5985 12.368C53.8945 12.368 53.2305 12.552 52.6065 12.92C51.9825 13.288 51.4785 13.864 51.0945 14.648C50.7105 15.432 50.5185 16.448 50.5185 17.696V23H48.7425V5.72H50.5185V14.768H50.2065C50.3985 13.792 50.7265 13.016 51.1905 12.44C51.6545 11.864 52.2065 11.448 52.8465 11.192C53.5025 10.936 54.1905 10.808 54.9105 10.808C56.3505 10.808 57.4865 11.256 58.3185 12.152C59.1505 13.032 59.5665 14.312 59.5665 15.992V23ZM72.7421 19.64L73.9901 20.816C73.3661 21.616 72.6141 22.248 71.7341 22.712C70.8541 23.16 69.8461 23.384 68.7101 23.384C67.4621 23.384 66.3421 23.112 65.3501 22.568C64.3741 22.024 63.6061 21.28 63.0461 20.336C62.4861 19.392 62.2061 18.312 62.2061 17.096C62.2061 15.88 62.4701 14.8 62.9981 13.856C63.5421 12.912 64.2861 12.168 65.2301 11.624C66.1741 11.08 67.2461 10.808 68.4461 10.808C69.5981 10.808 70.6141 11.08 71.4941 11.624C72.3901 12.152 73.0941 12.88 73.6061 13.808C74.1181 14.736 74.3741 15.808 74.3741 17.024V17.168H72.5501V17.024C72.5501 16.096 72.3661 15.288 71.9981 14.6C71.6461 13.896 71.1581 13.352 70.5341 12.968C69.9261 12.568 69.2301 12.368 68.4461 12.368C67.5821 12.368 66.8221 12.568 66.1661 12.968C65.5101 13.368 64.9981 13.92 64.6301 14.624C64.2621 15.328 64.0781 16.144 64.0781 17.072C64.0781 18 64.2781 18.824 64.6781 19.544C65.0781 20.264 65.6221 20.824 66.3101 21.224C67.0141 21.624 67.8221 21.824 68.7341 21.824C70.3981 21.824 71.7341 21.096 72.7421 19.64ZM74.3741 17.72H63.6941V16.256H73.9901L74.3741 17.024V17.72ZM83.5082 11V12.728H83.0282C82.3242 12.728 81.6602 12.912 81.0362 13.28C80.4122 13.648 79.9082 14.224 79.5242 15.008C79.1402 15.792 78.9482 16.808 78.9482 18.056V23H77.1722V11.192H78.9242V14.936H78.6122C78.8042 13.976 79.1402 13.208 79.6202 12.632C80.1002 12.056 80.6522 11.64 81.2762 11.384C81.9162 11.128 82.5722 11 83.2442 11H83.5082Z" fill="white"/>
</svg>
