<svg width="118" height="100" viewBox="0 0 118 100" fill="none" xmlns="http://www.w3.org/2000/svg">
<path d="M4.75 35.03C4.75 33.77 4.99 32.61 5.47 31.55C5.95 30.47 6.6 29.54 7.42 28.76C8.26 27.96 9.24 27.34 10.36 26.9C11.48 26.44 12.68 26.19 13.96 26.15H18.79L17.77 27.65C17.63 27.85 17.5 28.04 17.38 28.22C17.28 28.38 17.18 28.54 17.08 28.7C16.98 28.88 16.87 29.04 16.75 29.18H14.23C13.37 29.18 12.57 29.33 11.83 29.63C11.11 29.91 10.48 30.31 9.94 30.83C9.4 31.33 8.97 31.94 8.65 32.66C8.35 33.38 8.2 34.17 8.2 35.03C8.2 35.95 8.37 36.78 8.71 37.52C9.05 38.26 9.5 38.89 10.06 39.41C10.64 39.91 11.31 40.3 12.07 40.58C12.83 40.84 13.63 40.97 14.47 40.97H18.79C18.75 41.03 18.63 41.2 18.43 41.48C18.25 41.76 18.04 42.07 17.8 42.41C17.58 42.73 17.36 43.05 17.14 43.37C16.94 43.67 16.8 43.88 16.72 44H14.2C14.06 44 13.92 44 13.78 44C13.66 43.98 13.53 43.97 13.39 43.97C12.15 43.87 11 43.58 9.94 43.1C8.9 42.6 7.99 41.95 7.21 41.15C6.45 40.35 5.85 39.43 5.41 38.39C4.97 37.35 4.75 36.23 4.75 35.03ZM21.1773 44V26.18H24.2973V44H21.1773ZM27.5934 44V35.57H34.3734C35.3534 35.57 36.1734 35.29 36.8334 34.73C37.4934 34.17 37.8234 33.44 37.8234 32.54C37.8234 32.06 37.7234 31.62 37.5234 31.22C37.3434 30.8 37.0934 30.45 36.7734 30.17C36.4534 29.89 36.0834 29.67 35.6634 29.51C35.2434 29.35 34.8134 29.27 34.3734 29.27H27.5934L28.4934 27.92C28.7334 27.56 28.9634 27.22 29.1834 26.9C29.4234 26.56 29.5934 26.31 29.6934 26.15H34.3734C35.2734 26.15 36.1134 26.32 36.8934 26.66C37.6934 26.98 38.3934 27.43 38.9934 28.01C39.5934 28.59 40.0634 29.27 40.4034 30.05C40.7634 30.83 40.9434 31.66 40.9434 32.54C40.9434 33.42 40.7634 34.24 40.4034 35C40.0634 35.74 39.5934 36.38 38.9934 36.92C38.4134 37.46 37.7234 37.89 36.9234 38.21C36.1234 38.51 35.2734 38.66 34.3734 38.66H30.7134V44H27.5934ZM43.3551 26.15H46.4751V33.62H54.0351V26.15H57.1551V53.12C56.6551 52.3 56.1351 51.46 55.5951 50.6C55.0751 49.76 54.5551 48.92 54.0351 48.08V36.71H46.4751V44H43.3551V26.15ZM79.4245 26.18C80.3245 26.18 81.1645 26.35 81.9445 26.69C82.7445 27.01 83.4445 27.46 84.0445 28.04C84.6445 28.62 85.1145 29.3 85.4545 30.08C85.8145 30.86 85.9945 31.69 85.9945 32.57C85.9945 33.29 85.8745 33.96 85.6345 34.58C85.4145 35.2 85.0945 35.77 84.6745 36.29C84.2745 36.79 83.7845 37.23 83.2045 37.61C82.6445 37.97 82.0345 38.24 81.3745 38.42C81.5345 38.76 81.7345 39.2 81.9745 39.74C82.2145 40.26 82.4845 40.85 82.7845 41.51C83.0845 42.15 83.4045 42.84 83.7445 43.58C84.0845 44.3 84.4245 45.03 84.7645 45.77V53.18C84.4045 52.38 83.9645 51.42 83.4445 50.3C82.9445 49.2 82.4045 48.04 81.8245 46.82C81.2645 45.6 80.6945 44.38 80.1145 43.16C79.5545 41.92 79.0345 40.78 78.5545 39.74C78.0945 38.7 77.6845 37.81 77.3245 37.07C76.9845 36.33 76.7645 35.83 76.6645 35.57H79.4245C79.8645 35.57 80.2945 35.51 80.7145 35.39C81.1345 35.25 81.5045 35.06 81.8245 34.82C82.1445 34.56 82.3945 34.24 82.5745 33.86C82.7745 33.48 82.8745 33.05 82.8745 32.57C82.8745 32.07 82.7745 31.62 82.5745 31.22C82.3945 30.82 82.1445 30.48 81.8245 30.2C81.5045 29.9 81.1345 29.67 80.7145 29.51C80.2945 29.35 79.8645 29.27 79.4245 29.27H73.7545C73.5545 28.85 73.3345 28.39 73.0945 27.89C72.8545 27.37 72.5945 26.8 72.3145 26.18H79.4245ZM60.4645 44V35.63H73.5745C73.8145 36.15 74.0545 36.67 74.2945 37.19C74.5345 37.71 74.7745 38.22 75.0145 38.72H63.5845V40.88H76.0045C76.3245 41.56 76.6045 42.17 76.8445 42.71C77.0845 43.25 77.2845 43.68 77.4445 44H60.4645ZM69.1945 26.18C69.2345 26.26 69.3845 26.58 69.6445 27.14C69.9045 27.68 70.2345 28.39 70.6345 29.27H60.4645V26.18H69.1945Z" fill="#D8DBE2"/>
<path d="M41.17 73.37C41.53 72.83 41.86 72.34 42.16 71.9C42.42 71.52 42.65 71.18 42.85 70.88C43.07 70.56 43.19 70.38 43.21 70.34H48.7C49.54 70.34 50.3 70.19 50.98 69.89C51.68 69.57 52.28 69.15 52.78 68.63C53.28 68.09 53.67 67.47 53.95 66.77C54.23 66.05 54.37 65.28 54.37 64.46C54.37 63.66 54.23 62.91 53.95 62.21C53.67 61.49 53.28 60.86 52.78 60.32C52.3 59.78 51.71 59.36 51.01 59.06C50.31 58.74 49.54 58.58 48.7 58.58H41.17L43.21 55.55H48.7C49.92 55.55 51.08 55.78 52.18 56.24C53.3 56.7 54.27 57.33 55.09 58.13C55.93 58.93 56.59 59.87 57.07 60.95C57.57 62.03 57.82 63.2 57.82 64.46C57.82 65.72 57.57 66.89 57.07 67.97C56.59 69.05 55.93 69.99 55.09 70.79C54.27 71.59 53.3 72.22 52.18 72.68C51.08 73.14 49.92 73.37 48.7 73.37H41.17ZM64 55.55C64.9 55.55 65.74 55.72 66.52 56.06C67.32 56.38 68.02 56.83 68.62 57.41C69.22 57.99 69.69 58.67 70.03 59.45C70.39 60.23 70.57 61.06 70.57 61.94C70.57 62.66 70.45 63.34 70.21 63.98C69.99 64.6 69.67 65.16 69.25 65.66C68.85 66.16 68.36 66.6 67.78 66.98C67.22 67.34 66.61 67.61 65.95 67.79C66.11 68.13 66.3 68.56 66.52 69.08C66.76 69.58 67.02 70.15 67.3 70.79C67.6 71.41 67.9 72.08 68.2 72.8C68.52 73.5 68.85 74.21 69.19 74.93V82.58C68.81 81.78 68.37 80.82 67.87 79.7C67.37 78.58 66.84 77.41 66.28 76.19C65.74 74.97 65.19 73.75 64.63 72.53C64.07 71.29 63.56 70.15 63.1 69.11C62.64 68.07 62.24 67.18 61.9 66.44C61.56 65.7 61.34 65.2 61.24 64.94H64C64.44 64.94 64.87 64.88 65.29 64.76C65.71 64.62 66.08 64.43 66.4 64.19C66.72 63.93 66.97 63.61 67.15 63.23C67.35 62.85 67.45 62.42 67.45 61.94C67.45 61.46 67.35 61.02 67.15 60.62C66.97 60.2 66.72 59.85 66.4 59.57C66.08 59.29 65.71 59.07 65.29 58.91C64.87 58.75 64.44 58.67 64 58.67H58.33C58.13 58.23 57.91 57.76 57.67 57.26C57.45 56.74 57.2 56.17 56.92 55.55H64ZM70.3767 73.37C70.5167 73.07 70.7967 72.46 71.2167 71.54C71.6367 70.62 72.1267 69.55 72.6867 68.33C73.2467 67.11 73.8467 65.81 74.4867 64.43C75.1267 63.05 75.7267 61.75 76.2867 60.53C76.8467 59.31 77.3367 58.25 77.7567 57.35C78.1767 56.43 78.4567 55.82 78.5967 55.52H82.0167C82.0367 55.58 82.1867 55.93 82.4667 56.57C82.7667 57.19 83.1467 58.01 83.6067 59.03C84.0667 60.03 84.5967 61.18 85.1967 62.48C85.7967 63.78 86.4167 65.15 87.0567 66.59C87.7167 68.01 88.3767 69.45 89.0367 70.91C89.7167 72.37 90.3567 73.75 90.9567 75.05V82.55C89.9967 80.47 89.1967 78.73 88.5567 77.33C87.9167 75.93 87.3567 74.7 86.8767 73.64C86.3967 72.58 85.9567 71.61 85.5567 70.73C85.1567 69.85 84.7167 68.9 84.2367 67.88C83.7767 66.84 83.2367 65.64 82.6167 64.28C81.9967 62.92 81.2267 61.24 80.3067 59.24C79.6067 60.78 79.0567 61.99 78.6567 62.87C78.2567 63.73 77.9467 64.38 77.7267 64.82C77.5267 65.26 77.3867 65.56 77.3067 65.72C77.2467 65.86 77.1967 65.98 77.1567 66.08C77.1167 66.18 77.0567 66.32 76.9767 66.5C76.8967 66.66 76.7367 66.99 76.4967 67.49C76.2767 67.97 75.9567 68.67 75.5367 69.59C75.1167 70.51 74.5367 71.77 73.7967 73.37H70.3767ZM84.7647 45.77C85.5047 47.37 86.1447 48.77 86.6847 49.97C87.2447 51.17 87.7347 52.24 88.1547 53.18C88.5947 54.12 88.9847 54.97 89.3247 55.73C89.6847 56.47 90.0247 57.2 90.3447 57.92C90.6847 58.62 91.0247 59.34 91.3647 60.08C91.7047 60.8 92.0847 61.62 92.5047 62.54C92.9247 63.44 93.4047 64.46 93.9447 65.6C94.4847 66.74 95.1047 68.08 95.8047 69.62C96.2247 68.66 96.5947 67.85 96.9147 67.19C97.2347 66.51 97.5047 65.93 97.7247 65.45C97.6847 65.35 97.6447 65.27 97.6047 65.21C97.5647 65.13 97.5247 65.04 97.4847 64.94C97.0047 63.9 96.5247 62.87 96.0447 61.85C95.5847 60.81 95.1547 59.86 94.7547 59C94.3547 58.14 94.0147 57.4 93.7347 56.78C93.4547 56.16 93.2547 55.73 93.1347 55.49H96.5547C97.3347 57.21 98.0347 58.74 98.6547 60.08C99.2747 61.42 99.8347 62.64 100.335 63.74C100.855 64.84 101.335 65.86 101.775 66.8C102.215 67.72 102.645 68.63 103.065 69.53C103.705 68.13 104.195 67.05 104.535 66.29C104.895 65.53 105.175 64.95 105.375 64.55C105.575 64.13 105.725 63.81 105.825 63.59C105.945 63.35 106.085 63.06 106.245 62.72C106.405 62.38 106.625 61.91 106.905 61.31C107.185 60.69 107.595 59.79 108.135 58.61H102.255C102.135 58.33 102.055 58.15 102.015 58.07C101.975 57.99 101.925 57.89 101.865 57.77C101.805 57.63 101.705 57.4 101.565 57.08C101.425 56.76 101.185 56.23 100.845 55.49H112.995C112.995 55.49 112.885 55.73 112.665 56.21C112.445 56.69 112.155 57.32 111.795 58.1C111.435 58.88 111.015 59.78 110.535 60.8C110.075 61.82 109.595 62.87 109.095 63.95C108.615 65.01 108.135 66.07 107.655 67.13C107.175 68.17 106.735 69.12 106.335 69.98C105.935 70.84 105.595 71.57 105.315 72.17C105.055 72.75 104.885 73.12 104.805 73.28C104.905 73.5 105.015 73.73 105.135 73.97C105.255 74.21 105.365 74.45 105.465 74.69V82.55C105.425 82.47 105.265 82.12 104.985 81.5C104.725 80.9 104.395 80.16 103.995 79.28C103.595 78.42 103.165 77.47 102.705 76.43C102.245 75.39 101.795 74.39 101.355 73.43C100.915 72.47 100.525 71.61 100.185 70.85C99.8447 70.07 99.5947 69.51 99.4347 69.17C98.9147 70.31 98.4747 71.27 98.1147 72.05C97.7547 72.81 97.5547 73.24 97.5147 73.34H94.0647C93.9647 73.14 93.7547 72.69 93.4347 71.99C93.1147 71.27 92.7047 70.38 92.2047 69.32C91.7247 68.26 91.1747 67.07 90.5547 65.75C89.9547 64.41 89.3247 63.03 88.6647 61.61C88.0047 60.19 87.3347 58.76 86.6547 57.32C85.9947 55.88 85.3647 54.51 84.7647 53.21V45.77Z" fill="#D8DBE2"/>
</svg>
