<svg width="32" height="32" viewBox="0 0 32 32" fill="none" xmlns="http://www.w3.org/2000/svg">
<g clip-path="url(#clip0_6_143)">
<path d="M16 0C12.8355 0 9.74207 0.938384 7.11088 2.69649C4.4797 4.45459 2.42894 6.95345 1.21793 9.87706C0.00693258 12.8007 -0.309921 16.0177 0.307443 19.1214C0.924806 22.2251 2.44866 25.0761 4.6863 27.3137C6.92394 29.5513 9.77487 31.0752 12.8786 31.6926C15.9823 32.3099 19.1993 31.9931 22.1229 30.7821C25.0466 29.5711 27.5454 27.5203 29.3035 24.8891C31.0616 22.2579 32 19.1645 32 16C31.9965 11.7576 30.3096 7.69001 27.3098 4.69019C24.31 1.69037 20.2424 0.00353091 16 0ZM16.0267 25.3333C15.8516 25.3342 15.678 25.3006 15.5159 25.2344C15.3538 25.1682 15.2063 25.0707 15.0819 24.9475C14.8306 24.6987 14.6884 24.3603 14.6867 24.0067C14.6849 23.653 14.8237 23.3132 15.0725 23.0619C15.3213 22.8106 15.6597 22.6684 16.0133 22.6667H16.0267C16.3803 22.6667 16.7194 22.8071 16.9695 23.0572C17.2195 23.3072 17.36 23.6464 17.36 24C17.36 24.3536 17.2195 24.6928 16.9695 24.9428C16.7194 25.1929 16.3803 25.3333 16.0267 25.3333ZM18.5733 16.6733C18.2165 16.8452 17.9128 17.1105 17.6945 17.441C17.4762 17.7715 17.3514 18.155 17.3333 18.5507C17.3353 18.9104 17.1973 19.2568 16.9485 19.5166C16.6996 19.7764 16.3595 19.9292 16 19.9427C15.828 19.9489 15.6566 19.9206 15.4958 19.8594C15.3349 19.7982 15.188 19.7054 15.0637 19.5864C14.9394 19.4675 14.8402 19.3248 14.772 19.1668C14.7038 19.0088 14.668 18.8387 14.6667 18.6667C14.6634 17.7741 14.906 16.8979 15.368 16.1342C15.8299 15.3705 16.4933 14.7488 17.2853 14.3373C17.778 14.066 18.1722 13.6459 18.4117 13.137C18.6512 12.6281 18.7236 12.0565 18.6187 11.504C18.5148 10.9776 18.2563 10.4941 17.8763 10.1153C17.4963 9.73651 17.0121 9.47958 16.4853 9.37733C16.1005 9.30611 15.7048 9.32045 15.3261 9.41935C14.9475 9.51825 14.5952 9.69928 14.2944 9.94959C13.9936 10.1999 13.7515 10.5134 13.5854 10.8677C13.4193 11.2221 13.3333 11.6086 13.3333 12C13.3333 12.3536 13.1929 12.6928 12.9428 12.9428C12.6928 13.1929 12.3536 13.3333 12 13.3333C11.6464 13.3333 11.3072 13.1929 11.0572 12.9428C10.8072 12.6928 10.6667 12.3536 10.6667 12C10.667 11.0593 10.9161 10.1355 11.3887 9.3222C11.8614 8.5089 12.5407 7.83506 13.3578 7.36905C14.1749 6.90303 15.1007 6.66142 16.0414 6.66871C16.982 6.67601 17.904 6.93196 18.7138 7.41059C19.5235 7.88922 20.1923 8.57351 20.6523 9.39405C21.1122 10.2146 21.347 11.1422 21.3327 12.0827C21.3185 13.0233 21.0557 13.9433 20.5711 14.7495C20.0865 15.5558 19.3973 16.2195 18.5733 16.6733Z" fill="#E3DFFF"/>
</g>
<defs>
<clipPath id="clip0_6_143">
<rect width="32" height="32" fill="white"/>
</clipPath>
</defs>
</svg>
