<svg width="32" height="32" viewBox="0 0 32 32" fill="none" xmlns="http://www.w3.org/2000/svg">
<g clip-path="url(#clip0_6_150)">
<path d="M8.80155 20.6452H0.488774C0.218839 20.6452 0 20.8764 0 21.1613V31.4839C0 31.7688 0.218839 32 0.488774 32H8.80103C9.07148 32 9.29032 31.7688 9.29032 31.4839V21.1613C9.29032 20.8764 9.07148 20.6452 8.80155 20.6452ZM21.1613 16H10.8387C10.5538 16 10.3226 16.2312 10.3226 16.5161V31.4839C10.3226 31.7688 10.5538 32 10.8387 32H21.1613C21.4462 32 21.6774 31.7688 21.6774 31.4839V16.5161C21.6774 16.2312 21.4462 16 21.1613 16ZM31.5112 23.7419H23.1985C22.9285 23.7419 22.7097 23.9732 22.7097 24.2581V31.4839C22.7097 31.7688 22.9285 32 23.1985 32H31.5107C31.7812 32 32 31.7688 32 31.4839V24.2581C32 23.9732 31.7812 23.7419 31.5112 23.7419ZM22.7097 1.54839C22.7097 1.26452 22.4774 1.03226 22.1935 1.03226H20.129V0.516129C20.129 0.232258 19.8968 0 19.6129 0H12.3871C12.1032 0 11.871 0.232258 11.871 0.516129V1.03226H9.80645C9.52258 1.03226 9.29032 1.26452 9.29032 1.54839V3.6129C9.29032 5.14581 10.4052 6.42064 11.871 6.66323V6.70968C11.871 8.14968 12.7174 9.39355 13.9355 9.97161V12.3871H12.9032C12.3355 12.3871 11.871 12.8516 11.871 13.4194V14.4516C11.871 14.7355 12.1032 14.9677 12.3871 14.9677H19.6129C19.8968 14.9677 20.129 14.7355 20.129 14.4516V13.4194C20.129 12.8516 19.6645 12.3871 19.0968 12.3871H18.0645V9.97161C19.2826 9.39355 20.129 8.14968 20.129 6.70968V6.66323C21.5948 6.42064 22.7097 5.14581 22.7097 3.6129V1.54839ZM11.871 5.61032C10.9781 5.38323 10.3226 4.5729 10.3226 3.6129V2.06452H11.871V5.61032ZM21.6774 3.6129C21.6774 4.5729 21.0219 5.38323 20.129 5.61032V2.06452H21.6774V3.6129Z" fill="#E3DFFF"/>
</g>
<defs>
<clipPath id="clip0_6_150">
<rect width="32" height="32" fill="white"/>
</clipPath>
</defs>
</svg>
